<svg width="16" height="20" viewBox="0 0 16 20" fill="none" xmlns="http://www.w3.org/2000/svg">
  <defs>
    <linearGradient id="flameGradient" x1="8" y1="0" x2="8" y2="20" gradientUnits="userSpaceOnUse">
      <stop offset="0%" stop-color="#FF6B35"/>
      <stop offset="30%" stop-color="#FF4757"/>
      <stop offset="60%" stop-color="#FF3742"/>
      <stop offset="100%" stop-color="#FF1744"/>
    </linearGradient>
  </defs>
  
  <!-- Flame body -->
  <path d="M8 0C8 0 4 3 4 8C4 12 6 14 8 14C10 14 12 12 12 8C12 3 8 0 8 0Z" fill="url(#flameGradient)"/>
  
  <!-- Inner flame -->
  <path d="M8 2C8 2 6 4 6 7C6 9 7 10 8 10C9 10 10 9 10 7C10 4 8 2 8 2Z" fill="#FFB74D" opacity="0.8"/>
  
  <!-- Core flame -->
  <path d="M8 4C8 4 7 5 7 6.5C7 7.5 7.5 8 8 8C8.5 8 9 7.5 9 6.5C9 5 8 4 8 4Z" fill="#FFF59D" opacity="0.9"/>
  
  <!-- Bottom flame extensions -->
  <path d="M6 12C6 12 5 14 5 16C5 18 6 19 7 19C8 19 8.5 18 8.5 16C8.5 14 7.5 12 6 12Z" fill="url(#flameGradient)" opacity="0.7"/>
  <path d="M10 12C10 12 11 14 11 16C11 18 10 19 9 19C8 19 7.5 18 7.5 16C7.5 14 8.5 12 10 12Z" fill="url(#flameGradient)" opacity="0.7"/>
</svg>